<svg width="512" height="512" viewBox="0 0 512 512" fill="none" xmlns="http://www.w3.org/2000/svg">
<rect width="512" height="512" fill="white"/>
<path d="M267.021 313.143V195.575H302.397L347.805 279.351V195.575H374.733V313.143H339.181L293.773 229.367V313.143H267.021Z" fill="black"/>
<path d="M146.365 313.143V195.575H185.085C194.706 195.575 203.624 196.573 211.837 198.567C220.168 200.445 227.384 203.671 233.485 208.247C239.704 212.706 244.514 218.749 247.917 226.375C251.437 233.885 253.197 243.213 253.197 254.359C253.197 265.623 251.437 275.01 247.917 282.519C244.514 290.029 239.704 296.071 233.485 300.647C227.384 305.106 220.168 308.333 211.837 310.327C203.624 312.205 194.706 313.143 185.085 313.143H146.365ZM174.173 289.735H185.613C190.658 289.735 195.469 289.325 200.045 288.503C204.738 287.682 208.904 286.098 212.541 283.751C216.296 281.287 219.229 277.709 221.341 273.015C223.453 268.322 224.509 262.103 224.509 254.359C224.509 246.615 223.453 240.397 221.341 235.703C219.229 230.893 216.296 227.314 212.541 224.967C208.904 222.503 204.738 220.861 200.045 220.039C195.469 219.101 190.658 218.631 185.613 218.631H174.173V289.735Z" fill="black"/>
<path d="M25.7087 313.143V195.575H64.4287C74.05 195.575 82.9674 196.573 91.1807 198.567C99.5114 200.445 106.727 203.671 112.829 208.247C119.047 212.706 123.858 218.749 127.261 226.375C130.781 233.885 132.541 243.213 132.541 254.359C132.541 265.623 130.781 275.01 127.261 282.519C123.858 290.029 119.047 296.071 112.829 300.647C106.727 305.106 99.5114 308.333 91.1807 310.327C82.9674 312.205 74.05 313.143 64.4287 313.143H25.7087ZM53.5167 289.735H64.9567C70.002 289.735 74.8127 289.325 79.3887 288.503C84.082 287.682 88.2474 286.098 91.8847 283.751C95.6394 281.287 98.5727 277.709 100.685 273.015C102.797 268.322 103.853 262.103 103.853 254.359C103.853 246.615 102.797 240.397 100.685 235.703C98.5727 230.893 95.6394 227.314 91.8847 224.967C88.2474 222.503 84.082 220.861 79.3887 220.039C74.8127 219.101 70.002 218.631 64.9567 218.631H53.5167V289.735Z" fill="black"/>
<g filter="url(#filter0_d_1_2)">
<path fill-rule="evenodd" clip-rule="evenodd" d="M52.5514 218.298C47.3654 258.874 52.8378 301.428 70.595 341.283C120.077 452.344 246.213 500.394 352.327 448.605C415.519 417.765 457.36 358.475 470.421 292.102L428.266 292.102C415.958 342.592 382.908 387.111 334.266 410.851C248.173 452.868 145.836 413.884 105.69 323.778C91.306 291.493 86.8575 257.026 91.0315 224.151C81.4138 218.235 68.762 218.474 59.5551 218.647C58.1102 218.674 56.7502 218.7 55.5 218.7C54.4521 218.7 53.4706 218.56 52.5514 218.298Z" fill="#2ED567"/>
</g>
<path d="M437.776 315.255C424.986 315.255 414.192 312.674 405.392 307.511C396.709 302.231 390.549 294.898 386.912 285.511L412.256 276.359C413.898 281.991 416.949 286.157 421.408 288.855C425.984 291.554 431.498 292.903 437.952 292.903C441.354 292.903 444.64 292.551 447.808 291.847C450.976 291.026 453.616 289.735 455.728 287.975C457.84 286.098 458.896 283.634 458.896 280.583C458.896 276.477 456.901 273.309 452.912 271.079C448.922 268.733 443.76 266.973 437.424 265.799L423.168 262.983C416.832 261.693 410.906 259.757 405.392 257.175C399.994 254.477 395.653 250.957 392.368 246.615C389.082 242.157 387.44 236.583 387.44 229.895C387.44 223.559 388.906 218.103 391.84 213.527C394.773 208.951 398.645 205.197 403.456 202.263C408.384 199.33 413.781 197.159 419.648 195.751C425.514 194.226 431.381 193.463 437.248 193.463C443.584 193.463 449.685 194.343 455.552 196.103C461.536 197.863 466.874 200.621 471.568 204.375C476.261 208.013 479.84 212.882 482.304 218.983L457.136 228.135C455.61 224.146 452.853 221.095 448.864 218.983C444.992 216.871 440.298 215.815 434.784 215.815C429.386 215.815 424.869 216.813 421.232 218.807C417.712 220.685 415.952 223.442 415.952 227.079C415.952 230.013 417.184 232.535 419.648 234.647C422.112 236.759 425.338 238.226 429.328 239.047L445.168 242.215C449.978 243.154 454.848 244.386 459.776 245.911C464.704 247.319 469.221 249.255 473.328 251.719C477.552 254.066 480.954 257.234 483.536 261.223C486.117 265.213 487.408 270.258 487.408 276.359C487.408 282.578 485.941 288.151 483.008 293.079C480.192 297.89 476.378 301.938 471.568 305.223C466.874 308.509 461.594 311.031 455.728 312.791C449.861 314.434 443.877 315.255 437.776 315.255Z" fill="black"/>
<g filter="url(#filter1_d_1_2)">
<path fill-rule="evenodd" clip-rule="evenodd" d="M57.9444 195.575H64.4287C74.05 195.575 82.9673 196.573 91.1807 198.567C93.3265 199.051 95.3984 199.624 97.3963 200.286C112.242 158.268 143.306 122.012 186.885 101.69C260.544 67.3424 346.094 89.6476 394.411 150.726L374.651 160.364L443.576 206.855L449.375 123.919L432.005 132.39C373.52 52.0744 264.568 21.6915 171.137 65.2589C114.407 91.7129 74.8834 140.076 57.9444 195.575Z" fill="#26C95E"/>
</g>
<defs>
<filter id="filter0_d_1_2" x="50.6817" y="218.298" width="419.739" height="255.149" filterUnits="userSpaceOnUse" color-interpolation-filters="sRGB">
<feFlood flood-opacity="0" result="BackgroundImageFix"/>
<feColorMatrix in="SourceAlpha" type="matrix" values="0 0 0 0 0 0 0 0 0 0 0 0 0 0 0 0 0 0 127 0" result="hardAlpha"/>
<feOffset dy="4"/>
<feComposite in2="hardAlpha" operator="out"/>
<feColorMatrix type="matrix" values="0 0 0 0 0 0 0 0 0 0 0 0 0 0 0 0 0 0 0.5 0"/>
<feBlend mode="normal" in2="BackgroundImageFix" result="effect1_dropShadow_1_2"/>
<feBlend mode="normal" in="SourceGraphic" in2="effect1_dropShadow_1_2" result="shape"/>
</filter>
<filter id="filter1_d_1_2" x="57.9444" y="45.3456" width="391.431" height="165.509" filterUnits="userSpaceOnUse" color-interpolation-filters="sRGB">
<feFlood flood-opacity="0" result="BackgroundImageFix"/>
<feColorMatrix in="SourceAlpha" type="matrix" values="0 0 0 0 0 0 0 0 0 0 0 0 0 0 0 0 0 0 127 0" result="hardAlpha"/>
<feOffset dy="4"/>
<feComposite in2="hardAlpha" operator="out"/>
<feColorMatrix type="matrix" values="0 0 0 0 0 0 0 0 0 0 0 0 0 0 0 0 0 0 0.5 0"/>
<feBlend mode="normal" in2="BackgroundImageFix" result="effect1_dropShadow_1_2"/>
<feBlend mode="normal" in="SourceGraphic" in2="effect1_dropShadow_1_2" result="shape"/>
</filter>
</defs>
</svg>
