<svg width="512" height="512" viewBox="0 0 512 512" fill="none" xmlns="http://www.w3.org/2000/svg">
<g clip-path="url(#clip0_2_115)">
<rect width="512" height="512" fill="white"/>
<path d="M95 176.75C95 148.417 109.333 125.167 138 107C166.833 88.6667 198.25 79.5 232.25 79.5H261C357 79.5 405 116.75 405 191.25C405 207.917 400.917 222.417 392.75 234.75C384.75 246.917 374.917 256.25 363.25 262.75C351.75 269.25 340.167 275.083 328.5 280.25C317 285.417 307.167 291.083 299 297.25C291 303.25 287 309.333 287 315.5C287 327.5 281.917 333.5 271.75 333.5H215.5C211 333.5 207.25 332.083 204.25 329.25C201.417 326.25 200 322.583 200 318.25C200 303.917 202.75 291.25 208.25 280.25C213.75 269.25 220.583 260.667 228.75 254.5C236.917 248.167 245.75 242.25 255.25 236.75C264.917 231.25 273.833 226.667 282 223C301.167 214.167 310.75 203.083 310.75 189.75C310.75 176.417 306.167 166.5 297 160C288 153.5 273.583 150.25 253.75 150.25H241C213.333 150.25 194.417 160.5 184.25 181C176.75 196.667 165.5 204.5 150.5 204.5H120.75C112.583 204.5 106.25 201.583 101.75 195.75C97.25 189.917 95 183.583 95 176.75ZM195 408.75V393C195 382 198 373.583 204 367.75C210 361.917 218.25 359 228.75 359H259.5C270 359 278.25 361.917 284.25 367.75C290.25 373.583 293.25 382 293.25 393V408.75C293.25 419.417 290.25 427.75 284.25 433.75C278.25 439.583 270 442.5 259.5 442.5H228.75C218.25 442.5 210 439.583 204 433.75C198 427.75 195 419.417 195 408.75Z" fill="#26C95E"/>
</g>
<defs>
<clipPath id="clip0_2_115">
<rect width="512" height="512" fill="white"/>
</clipPath>
</defs>
</svg>
