<svg width="512" height="512" viewBox="0 0 512 512" fill="none" xmlns="http://www.w3.org/2000/svg">
<rect width="512" height="512" fill="white"/>
<path d="M497 187.073C496.838 142.833 460.951 107 416.658 107H290.459L302.098 152.91L410.407 176.458C415.295 177.594 419.675 180.302 422.877 184.165C426.079 188.029 427.926 192.836 428.135 197.85C428.189 198.119 428.189 314.295 428.135 314.564C427.926 319.578 426.079 324.385 422.877 328.249C419.675 332.113 415.295 334.82 410.407 335.957L302.098 359.504L290.459 405.468H416.658C460.897 405.468 496.838 369.635 497 325.395V187.073ZM101.647 336.065C96.7591 334.928 92.3787 332.221 89.1767 328.357C85.9747 324.493 84.1278 319.686 83.9187 314.672C83.8648 314.349 83.8648 198.227 83.9187 197.958C84.3498 187.504 91.7859 178.829 101.647 176.565L209.955 153.018L221.595 107.108H95.3423C51.1029 107.108 15.1617 142.887 15 187.181V325.611C15.1617 369.85 51.1029 405.684 95.3423 405.684H221.541L209.902 359.72L101.647 336.065ZM209.902 250.495H302.045V261.973H209.902V250.495Z" fill="black"/>
</svg>
