<svg width="512" height="512" viewBox="0 0 512 512" fill="none" xmlns="http://www.w3.org/2000/svg">
<rect width="512" height="512" fill="white"/>
<path fill-rule="evenodd" clip-rule="evenodd" d="M188.756 442.547C124.66 441.244 70.4134 440.142 36.2988 440.142C25.7675 440.142 9.97304 433.561 16.5546 387.491C18.0101 377.302 19.6214 362.655 21.5465 345.157C32.1755 248.542 52.3677 65 108.695 65H450.93C478.683 65 454.423 175.527 432.982 273.208C423.916 314.515 415.353 353.526 411.441 380.909C408.588 400.881 425.567 409.568 460.313 427.345C470.909 432.767 483.157 439.034 497 446.724C394.352 446.724 281.29 444.427 188.756 442.547ZM194.253 196.629H306.138C325.882 196.629 299.556 315.095 286.394 315.095H174.509C161.346 315.095 181.091 196.629 194.253 196.629Z" fill="#E2003D"/>
</svg>
