<svg width="512" height="512" viewBox="0 0 512 512" fill="none" xmlns="http://www.w3.org/2000/svg">
<rect width="512" height="512" fill="white"/>
<path d="M396.001 240.001L386.001 236.002C339.004 341.748 152.042 277.46 140.793 308.918C138.917 330.167 242.892 312.958 317.224 316.56C339.891 317.658 351.257 334.769 341.632 362.659L360.591 362.717C382.459 294.543 452.252 329.335 455.168 306.835C450.376 292.042 374.958 306.835 396.001 240.001Z" fill="white"/>
<path d="M347.001 351.001C350 341.002 349 331.002 344.001 325.001C339 319.001 332 315.002 323 314.002L149 312.001C148 312.001 147 311.001 146.001 311.001C145.001 310.001 145.001 309.001 146.001 308.001C147 306.002 148 305 150 305L325 303.001C346.001 302.001 368.001 285.001 376 265.002L386.001 239.002C386.001 238 387.001 237 386.001 236.001C375 185.001 329.001 147 275 147C225 147 182 179 167 224.002C157 217.001 145.001 213 131 214.002C107 216.001 88.0005 236.001 84.9993 260.001C83.9995 266.001 84.9993 272.002 86.001 278.001C47.0003 279 15 311.001 15 351.001C15 355 15 358.001 15.9998 362.001C15.9998 364.002 17.9993 365.002 19.001 365.002H340C342 365.002 344.001 364.002 344.001 362.001L347.001 351.001Z" fill="#F4811F"/>
<path d="M402.001 239.001H397C396 239.001 395 240.001 394.001 241.001L387 265.001C384.001 275 385.001 285.002 390.002 291.001C395 297.001 402.001 301 411.001 302.002L448.002 304.001C449.002 304.001 450.001 305.001 451.001 305.001C452.001 306.001 452.001 307.001 451.001 308.001C450.001 310.002 449.002 311.002 447 311.002L409.001 313.001C388 314.001 366.001 331.001 358.001 351L356 360.002C355 361.002 356 363.001 358.001 363.001H490.002C492.001 363.001 493.001 362.002 493.001 360.002C495.001 352.002 497 343.002 497 334C497 282.001 454 239.001 402.001 239.001Z" fill="#FAAD3F"/>
</svg>
