<svg width="512" height="512" viewBox="0 0 512 512" fill="none" xmlns="http://www.w3.org/2000/svg">
<rect width="512" height="512" fill="white"/>
<path d="M91.3466 181.2L61.6236 268.07L88.8932 384.874L136.919 430.801" fill="#3D5263"/>
<path d="M30.0212 107.89L59.3267 172.35L96.4148 188.983L148.792 118.76" fill="#FEF3DF"/>
<path d="M125.419 145.486C125.419 145.486 83.6614 100.665 34.8641 113.907C34.8641 113.907 45.0122 175.045 120.51 190.717L125.644 205.933C125.644 205.933 7.10803 191.875 15.4173 87.3828C15.4173 87.3828 102.563 49.0918 146.8 110.828" fill="#B58765"/>
<path d="M482.387 94.9659L456.814 160.994L420.739 179.717L364.435 112.6" fill="#FEF3DF"/>
<path d="M389.301 137.948C389.301 137.948 428.429 90.816 477.898 101.251C477.898 101.251 471.262 162.868 396.782 182.825L392.521 198.312C392.521 198.312 510.058 177.508 495.8 73.6612C495.8 73.6612 406.615 40.4075 365.968 104.568" fill="#B58765"/>
<path d="M163.109 457.447L263.756 454.571L300.766 73.5388C200.355 76.4074 82.0433 145.042 84.5014 231.099C84.575 233.713 84.7979 236.107 84.9331 238.603C85.3626 245.674 86.129 252.225 87.0449 258.591C90.846 285.159 98.2488 307.204 104.496 336.203C107.51 350.216 114.697 377.996 114.697 377.996C114.82 378.727 115.036 379.434 115.162 380.162C120.574 409.8 138.096 437.174 163.109 457.447Z" fill="#B58765"/>
<path d="M251.752 70.3702L262.728 454.601L363.374 451.726C387.191 430.058 403.117 401.728 406.835 371.831C406.918 371.096 407.089 370.377 407.17 369.641C407.17 369.641 412.755 341.496 414.969 327.333C419.553 298.026 425.689 275.591 427.967 248.856C428.512 242.445 428.899 235.86 428.916 228.775C428.92 226.277 429.001 223.873 428.928 221.259C426.467 135.202 352.17 67.5016 251.752 70.3702Z" fill="#B58765"/>
<path d="M403.039 390.161C404.493 441.11 342.544 484.234 264.662 486.46C186.766 488.685 122.46 449.168 121.003 398.218C119.546 347.259 181.493 304.145 259.39 301.919C337.274 299.694 401.584 339.202 403.039 390.161Z" fill="#FEF3DF"/>
<path d="M197.723 381.766C198.043 392.946 189.233 402.276 178.043 402.594C166.873 402.912 157.541 394.102 157.22 382.921C156.9 371.727 165.715 362.412 176.886 362.091C188.078 361.773 197.402 370.569 197.723 381.766Z" fill="#5A3620"/>
<path d="M366.494 376.945C366.815 388.125 358.012 397.454 346.822 397.772C335.637 398.093 326.308 389.281 325.987 378.1C325.667 366.906 334.479 357.59 345.664 357.27C356.854 356.952 366.174 365.748 366.494 376.945Z" fill="#5A3620"/>
<path d="M424.232 231.711C424.709 226.092 425.048 220.324 425.067 214.126C425.067 211.934 425.141 209.832 425.074 207.535C422.979 134.161 361.239 76.0436 276.832 75.3365L263.637 75.7233H263.625C263.613 75.7565 233.248 245.317 425.197 333.181C426.677 325.366 451.064 284.16 435.469 285.367C439.488 259.69 422.236 255.127 424.232 231.711Z" fill="#87654A"/>
<path d="M367.569 222.25C367.927 234.778 358.052 245.228 345.517 245.586C332.991 245.944 322.535 236.076 322.177 223.548C321.818 211.008 331.694 200.564 344.222 200.205C356.754 199.847 367.211 209.711 367.569 222.25Z" fill="#5A3620"/>
<path d="M202.276 226.972C202.634 239.5 192.761 249.95 180.236 250.308C167.698 250.666 157.256 240.798 156.9 228.27C156.542 215.73 166.403 205.286 178.94 204.93C191.466 204.569 201.918 214.432 202.276 226.972Z" fill="#5A3620"/>
<path d="M196.183 220.326C196.313 224.927 192.695 228.761 188.092 228.892C183.491 229.022 179.65 225.404 179.519 220.801C179.389 216.209 183.017 212.373 187.617 212.242C192.22 212.112 196.052 215.735 196.183 220.326Z" fill="white"/>
<path d="M359.931 215.649C360.062 220.25 356.439 224.084 351.843 224.215C347.24 224.345 343.405 220.727 343.275 216.124C343.144 211.533 346.765 207.696 351.368 207.566C355.964 207.433 359.801 211.056 359.931 215.649Z" fill="white"/>
<path d="M166.934 91.0415C166.934 91.0415 132.831 46.6456 164.794 16.1348C164.794 16.1348 190.052 73.0516 238.811 70.7382" fill="#FEF3DF"/>
<path d="M346.727 85.9068C346.727 85.9068 378.239 39.6363 344.587 11C344.587 11 322.618 69.2669 273.809 69.7415" fill="#FEF3DF"/>
<path d="M259.359 67.4091C139.911 70.821 45.8402 170.425 49.2545 289.873C52.6665 409.32 152.271 503.387 271.716 499.975C391.166 496.563 485.232 396.963 481.82 277.516C478.408 158.066 378.809 63.9971 259.359 67.4091ZM248.928 456.077C153.564 458.801 73.9996 382.115 71.2212 284.79C68.4403 187.469 143.497 106.362 238.861 103.638C334.223 100.914 413.785 177.6 416.566 274.925C419.344 372.249 344.288 453.353 248.928 456.077Z" fill="#F1F2F2"/>
<path d="M251.46 76.2498C370.908 72.8378 470.507 166.907 473.919 286.354C475.497 341.617 456.202 392.621 423.193 431.825C461 391.603 483.519 337.002 481.818 277.464C478.406 158.018 378.806 63.9473 259.356 67.3592C195.172 69.1934 138.324 98.812 99.981 144.352C138.028 103.875 191.549 77.9629 251.46 76.2498Z" fill="white"/>
</svg>
