<svg width="512" height="512" viewBox="0 0 512 512" fill="none" xmlns="http://www.w3.org/2000/svg">
<rect width="512" height="512" fill="white"/>
<path fill-rule="evenodd" clip-rule="evenodd" d="M189.544 275.887C189.803 273.377 188.817 270.078 186.854 268.516C184.666 266.774 181.069 266.599 178.328 266.95C175.622 267.293 173.866 271.582 171.202 270.97C168.367 270.326 165.24 270.439 162.699 269.029C158.923 266.929 155.976 263.587 152.748 260.713L149.017 257.384L138.817 238.763L119.563 235.35L140.335 236.476L148.597 252.397C151.567 251.846 154.49 250.822 157.501 250.735C159.427 250.68 161.789 251.402 163.107 251.982C164.02 252.383 164.765 253.089 165.598 253.644C168.221 255.395 168.345 255.416 171.61 255.514C192.252 256.121 211.509 248.023 228.2 235.178C230.28 233.576 236.221 229.314 233.084 225.996C231.605 224.427 223.008 232.551 216.258 235.22C209.505 237.887 195.081 244.947 184.302 244.658C173.525 244.37 172.513 242.279 168.501 239.515C159.012 232.975 161.124 222.443 158.861 212.917C158.526 211.513 154.763 214.975 154.027 212.261C153.295 209.556 159.266 209.678 160.621 209.48C161.975 209.283 167.003 207.255 167.329 210.006C167.657 212.759 164.144 211.34 163.525 211.67C162.898 211.995 163.155 213.041 163.107 213.746C163.016 215.128 162.768 216.559 163.107 217.902C163.768 220.501 164.97 222.934 166.052 225.382C167.893 229.558 176.134 234.316 180.521 234.527C184.533 234.719 189.05 235.308 197.48 234.561C205.912 233.817 214.446 227.16 226.542 223.305C228.498 222.681 230.637 222.367 232.346 221.228C232.932 220.834 233.006 219.811 232.76 219.147C231.99 217.051 230.665 215.199 229.443 213.329C228.035 211.175 226.611 209.006 224.882 207.097C222.586 204.554 219.901 202.391 217.422 200.03C210.516 193.461 205.715 189.009 197.936 186.731C188.441 183.953 186.131 183.673 177.976 181.844C175.577 181.308 173.419 179.905 171.248 178.594C168.005 176.627 164.112 175.339 160.003 175.009C157.998 174.844 150.099 177.053 150.984 180.4C151.397 181.972 147.937 185.25 147.877 187.095L147.303 205.045L146.027 189.692C142.69 188.615 139.418 187.299 136.013 186.464C111.503 180.464 80.6312 179.155 57.3872 189.224C36.4289 198.306 23.0417 217.492 18.7081 234.951C14.3716 252.41 13.7161 266.244 17.3918 281.445C23.8122 307.977 39.9849 332.151 74.385 326.792C83.9402 325.302 95.2835 314.845 98.4322 304.764C100.432 298.364 98.5077 286.825 94.6989 281.076C93.0758 278.624 91.0993 276.378 88.8956 274.424C87.4602 273.15 85.6644 272.32 83.9216 271.513C82.0579 270.654 80.143 269.766 78.1183 269.437C67.5816 267.727 55.6693 271.789 56.5573 285.11C57.0199 291.994 62.6605 303.764 71.4846 300.611C75.6531 299.118 76.254 292.805 74.1491 290.396C72.6492 288.681 69.6203 287.71 68.5812 286.477C67.9489 285.729 67.6734 284.416 68.1668 283.568C68.82 282.442 70.2183 281.806 71.4846 281.489C73.092 281.088 74.8465 281.104 76.4557 281.489C77.8458 281.821 79.3428 282.424 80.1889 283.568C82.2136 286.305 84.0227 289.382 84.7497 292.709C85.3134 295.295 84.8619 298.135 83.9216 300.611C83.0046 303.015 81.4523 305.343 79.3608 306.843C76.4394 308.936 71.7432 311.8 67.4991 311.546C54.0206 310.741 46.7128 294.882 45.805 286.063C44.9223 277.485 47.6025 264.378 61.5325 259.466C67.7879 257.259 74.8 259.924 81.4314 259.876C84.963 259.855 88.4871 258.854 91.9914 259.25C94.6832 259.557 97.4419 260.39 99.6543 261.948C102.248 263.777 103.669 266.879 105.942 269.089C109.785 272.82 113.901 276.272 117.976 279.751C121.564 282.816 126.256 284.84 128.928 288.707C130.25 290.628 128.131 293.686 128.836 295.49C129.572 297.367 132.36 299.249 134.768 299.806C137.088 300.349 139.51 300.089 141.878 298.524C143.905 297.185 145.155 294.205 145.382 291.717C145.609 289.241 144.47 287.022 142.7 285.254C141.002 283.559 137.861 285.156 136.373 283.396C134.779 281.512 133.148 279.66 131.594 277.748C128.792 274.312 126.242 270.665 123.296 267.357L115.559 258.668L101.963 242.387L74.3415 241.158L102.612 240.244L114.745 254.327C116.113 254.107 117.318 253.708 118.861 253.666C120.876 253.612 122.913 253.727 124.899 254.093C126.63 254.414 128.315 255.002 129.929 255.711C132.078 256.656 134.392 257.472 136.145 259.034C140.542 262.936 143.747 268.066 148.175 271.93C150.994 274.383 154.213 276.512 157.714 277.829C161.94 279.412 166.597 279.557 170.988 280.489C173.786 281.081 176.434 282.571 179.278 282.741C181.254 282.858 183.853 282.823 185.591 281.663C187.496 280.396 189.305 278.262 189.544 275.887ZM191.846 194.199C199.424 194.425 206.441 199.374 206.241 207.333C206.006 216.772 200.566 221.425 192.13 221.43C184.852 221.43 179.206 216.646 178.032 209.59C176.685 201.478 183.981 193.96 191.846 194.199ZM192.41 199.207C197.443 199.212 201.325 202.927 201.233 207.429C201.144 211.931 199.014 216.268 193.371 216.653C187.737 217.044 182.979 212.88 183.009 207.511C183.043 202.143 187.381 199.2 192.41 199.207Z" fill="#2F6494"/>
<path fill-rule="evenodd" clip-rule="evenodd" d="M216.31 276.713C216.31 281.82 217.805 284.373 220.795 284.373C222.788 284.373 224.212 283.539 225.067 281.874V270.915C224.249 269.213 222.842 268.362 220.848 268.362C218.072 268.362 216.568 270.596 216.337 275.064L216.31 276.713ZM207.313 276.154C207.313 271.598 208.3 268.008 210.276 265.383C212.253 262.76 215.01 261.447 218.554 261.447C221.134 261.447 223.305 262.458 225.067 264.479V249.904H234.091V290.756H226.002L225.548 287.67C223.696 290.082 221.346 291.288 218.499 291.288C215.063 291.288 212.341 289.976 210.329 287.351C208.318 284.728 207.313 280.995 207.313 276.154Z" fill="#2F6494"/>
<path fill-rule="evenodd" clip-rule="evenodd" d="M246.779 276.969C246.779 279.572 247.2 281.481 248.04 282.696C248.88 283.912 250.122 284.518 251.767 284.518C254.984 284.518 256.63 282.115 256.701 277.307V276.422C256.701 271.37 255.037 268.845 251.712 268.845C248.692 268.845 247.056 271.024 246.806 275.38L246.779 276.969ZM237.742 276.422C237.742 273.61 238.305 271.106 239.432 268.91C240.557 266.715 242.177 265.027 244.285 263.847C246.395 262.666 248.87 262.076 251.712 262.076C256.057 262.076 259.48 263.383 261.983 265.994C264.487 268.607 265.737 272.161 265.737 276.656V276.969C265.737 281.36 264.482 284.844 261.971 287.422C259.458 289.999 256.057 291.288 251.767 291.288C247.637 291.288 244.322 290.086 241.818 287.681C239.314 285.278 237.965 282.019 237.768 277.905L237.742 276.422Z" fill="#2F6494"/>
<path fill-rule="evenodd" clip-rule="evenodd" d="M277.723 261.39L278.015 264.755C280.036 262.158 282.753 260.859 286.164 260.859C289.768 260.859 292.205 262.3 293.471 265.18C295.405 262.3 298.2 260.859 301.858 260.859C307.643 260.859 310.615 264.376 310.773 271.409V290.071H301.858V271.966C301.858 270.499 301.612 269.43 301.12 268.758C300.627 268.087 299.73 267.751 298.43 267.751C296.671 267.751 295.36 268.538 294.499 270.11L294.525 270.482V290.071H285.61V272.019C285.61 270.517 285.373 269.43 284.897 268.758C284.424 268.087 283.518 267.751 282.182 267.751C280.475 267.751 279.175 268.538 278.279 270.11V290.071H269.389V261.39H277.723Z" fill="#2F6494"/>
<path fill-rule="evenodd" clip-rule="evenodd" d="M327.685 285.04C328.815 285.04 329.751 284.805 330.495 284.337C331.238 283.868 331.773 283.339 332.095 282.749V278.244H329.459C326.304 278.244 324.729 279.615 324.729 282.359C324.729 283.156 325.005 283.803 325.562 284.297C326.116 284.793 326.826 285.04 327.685 285.04ZM333.359 290.767C333.037 290.194 332.749 289.353 332.498 288.243C330.83 290.273 328.501 291.288 325.509 291.288C322.766 291.288 320.435 290.485 318.518 288.88C316.6 287.275 315.641 285.256 315.641 282.826C315.641 279.772 316.806 277.463 319.135 275.901C321.465 274.34 324.852 273.558 329.299 273.558H332.095V272.067C332.095 269.468 330.94 268.169 328.627 268.169C326.476 268.169 325.399 269.198 325.399 271.255H316.34C316.34 268.534 317.536 266.324 319.928 264.625C322.322 262.926 325.374 262.076 329.084 262.076C332.793 262.076 335.724 262.952 337.876 264.706C340.027 266.459 341.129 268.863 341.182 271.918V284.388C341.217 286.975 341.63 288.954 342.419 290.325V290.767H333.359Z" fill="#2F6494"/>
<path fill-rule="evenodd" clip-rule="evenodd" d="M346.591 290.071H355.392V261.573H346.591V290.071ZM346.071 254.224C346.071 252.959 346.522 251.924 347.426 251.116C348.327 250.308 349.499 249.904 350.939 249.904C352.38 249.904 353.552 250.308 354.455 251.116C355.357 251.924 355.808 252.959 355.808 254.224C355.808 255.488 355.357 256.523 354.455 257.332C353.552 258.14 352.38 258.543 350.939 258.543C349.499 258.543 348.327 258.14 347.426 257.332C346.522 256.523 346.071 255.488 346.071 254.224Z" fill="#2F6494"/>
<path fill-rule="evenodd" clip-rule="evenodd" d="M368.961 261.39L369.249 264.755C371.207 262.158 373.906 260.859 377.349 260.859C380.303 260.859 382.51 261.751 383.969 263.536C385.428 265.321 386.185 268.007 386.237 271.595V290.071H377.376V271.966C377.376 270.517 377.088 269.453 376.511 268.772C375.935 268.091 374.886 267.751 373.365 267.751C371.635 267.751 370.35 268.44 369.511 269.819V290.071H360.677V261.39H368.961Z" fill="#2F6494"/>
<path fill-rule="evenodd" clip-rule="evenodd" d="M185.882 321.749C185.882 326.856 187.376 329.409 190.367 329.409C192.36 329.409 193.783 328.575 194.638 326.91V315.951C193.818 314.249 192.413 313.399 190.419 313.399C187.643 313.399 186.138 315.631 185.908 320.1L185.882 321.749ZM176.884 321.191C176.884 316.634 177.872 313.044 179.848 310.419C181.822 307.795 184.582 306.484 188.124 306.484C190.704 306.484 192.876 307.494 194.638 309.514V294.94H203.662V335.793H195.573L195.118 332.707C193.266 335.119 190.918 336.324 188.07 336.324C184.636 336.324 181.911 335.012 179.901 332.388C177.889 329.763 176.884 326.031 176.884 321.191Z" fill="#2F6494"/>
<path fill-rule="evenodd" clip-rule="evenodd" d="M209.051 335.106H217.851V306.606H209.051V335.106ZM208.53 299.259C208.53 297.995 208.982 296.958 209.884 296.151C210.786 295.344 211.958 294.94 213.398 294.94C214.84 294.94 216.01 295.344 216.914 296.151C217.815 296.958 218.268 297.995 218.268 299.259C218.268 300.524 217.815 301.56 216.914 302.367C216.01 303.175 214.84 303.579 213.398 303.579C211.958 303.579 210.786 303.175 209.884 302.367C208.982 301.56 208.53 300.524 208.53 299.259Z" fill="#2F6494"/>
<path fill-rule="evenodd" clip-rule="evenodd" d="M238.71 326.671C238.71 325.924 238.307 325.325 237.503 324.874C236.697 324.423 235.169 323.954 232.917 323.468C230.663 322.983 228.803 322.344 227.336 321.553C225.87 320.764 224.753 319.806 223.984 318.677C223.216 317.55 222.83 316.255 222.83 314.798C222.83 312.212 223.931 310.081 226.131 308.406C228.33 306.731 231.208 305.894 234.767 305.894C238.594 305.894 241.668 306.736 243.994 308.419C246.319 310.103 247.48 312.316 247.48 315.058H238.414C238.414 312.801 237.19 311.674 234.74 311.674C233.791 311.674 232.996 311.93 232.352 312.442C231.709 312.954 231.387 313.591 231.387 314.355C231.387 315.137 231.78 315.77 232.567 316.255C233.354 316.743 234.61 317.141 236.336 317.455C238.062 317.766 239.577 318.139 240.883 318.573C245.245 320.031 247.426 322.643 247.426 326.409C247.426 328.979 246.25 331.072 243.9 332.686C241.548 334.298 238.504 335.106 234.767 335.106C232.282 335.106 230.063 334.673 228.114 333.804C226.166 332.937 224.646 331.756 223.555 330.264C222.464 328.77 221.919 327.201 221.919 325.55H230.369C230.404 326.853 230.85 327.803 231.709 328.401C232.567 329 233.667 329.301 235.008 329.301C236.242 329.301 237.167 329.058 237.785 328.57C238.401 328.085 238.71 327.452 238.71 326.671Z" fill="#2F6494"/>
<path fill-rule="evenodd" clip-rule="evenodd" d="M263.172 328.337C264.427 328.337 265.399 328.003 266.088 327.334C266.779 326.667 267.113 325.734 267.095 324.536H275.475C275.475 327.625 274.347 330.16 272.093 332.138C269.84 334.118 266.937 335.106 263.383 335.106C259.211 335.106 255.925 333.823 253.521 331.254C251.117 328.684 249.914 325.127 249.914 320.578V320.214C249.914 317.367 250.449 314.855 251.518 312.676C252.587 310.499 254.131 308.823 256.145 307.652C258.16 306.479 260.546 305.894 263.305 305.894C267.032 305.894 269.995 306.909 272.186 308.94C274.378 310.972 275.475 313.722 275.475 317.195H267.095C267.095 315.736 266.732 314.616 266.009 313.836C265.284 313.053 264.312 312.664 263.092 312.664C260.777 312.664 259.423 314.112 259.035 317.011C258.911 317.931 258.851 319.199 258.851 320.813C258.851 323.643 259.195 325.603 259.883 326.698C260.574 327.791 261.668 328.337 263.172 328.337Z" fill="#2F6494"/>
<path fill-rule="evenodd" clip-rule="evenodd" d="M286.947 320.786C286.947 323.39 287.365 325.3 288.206 326.514C289.047 327.73 290.289 328.337 291.933 328.337C295.151 328.337 296.795 325.933 296.867 321.126V320.239C296.867 315.189 295.205 312.663 291.879 312.663C288.858 312.663 287.223 314.842 286.973 319.199L286.947 320.786ZM277.909 320.239C277.909 317.428 278.472 314.925 279.597 312.728C280.725 310.533 282.342 308.845 284.452 307.664C286.562 306.484 289.037 305.894 291.879 305.894C296.224 305.894 299.647 307.2 302.15 309.812C304.652 312.424 305.904 315.979 305.904 320.473V320.786C305.904 325.178 304.648 328.663 302.138 331.241C299.625 333.819 296.224 335.106 291.933 335.106C287.804 335.106 284.488 333.905 281.985 331.501C279.483 329.098 278.133 325.838 277.937 321.725L277.909 320.239Z" fill="#2F6494"/>
<path fill-rule="evenodd" clip-rule="evenodd" d="M326.579 332.692C324.71 335.113 322.187 336.324 319.01 336.324C315.902 336.324 313.549 335.41 311.952 333.579C310.355 331.751 309.556 329.122 309.556 325.694V307.111H318.381V325.747C318.381 328.203 319.56 329.431 321.916 329.431C323.942 329.431 325.383 328.699 326.238 327.232V307.111H335.116V335.794H326.841L326.579 332.692Z" fill="#2F6494"/>
<path fill-rule="evenodd" clip-rule="evenodd" d="M348.27 306.423L348.558 309.789C350.515 307.192 353.216 305.894 356.659 305.894C359.613 305.894 361.818 306.786 363.279 308.57C364.739 310.355 365.493 313.042 365.545 316.63V335.106H356.685V317.001C356.685 315.551 356.397 314.486 355.821 313.805C355.243 313.126 354.195 312.786 352.675 312.786C350.944 312.786 349.658 313.474 348.82 314.853V335.106H339.985V306.423H348.27Z" fill="#2F6494"/>
<path fill-rule="evenodd" clip-rule="evenodd" d="M381.314 299.808V306.974H385.856V313.206H381.314V326.391C381.314 327.474 381.501 328.228 381.874 328.654C382.25 329.079 382.989 329.293 384.094 329.293C384.945 329.293 385.658 329.239 386.237 329.133V335.551C384.69 336.066 383.074 336.324 381.39 336.324C378.431 336.324 376.247 335.597 374.834 334.14C373.423 332.684 372.717 330.473 372.717 327.509V313.206H369.197V306.974H372.717V299.808H381.314Z" fill="#2F6494"/>
<path fill-rule="evenodd" clip-rule="evenodd" d="M448.313 333.889H399.819V324.418L422.706 300.408C425.847 297.028 428.172 294.08 429.678 291.56C431.185 289.042 431.937 286.65 431.937 284.386C431.937 281.293 431.144 278.861 429.556 277.092C427.97 275.321 425.701 274.437 422.754 274.437C419.579 274.437 417.077 275.513 415.247 277.666C413.417 279.819 412.501 282.648 412.501 286.155H398.409C398.409 281.915 399.438 278.041 401.495 274.532C403.551 271.026 406.458 268.275 410.216 266.282C413.974 264.29 418.235 263.293 422.996 263.293C430.286 263.293 435.945 265.015 439.98 268.459C444.012 271.902 446.03 276.765 446.03 283.047C446.03 286.49 445.123 289.998 443.309 293.569C441.493 297.141 438.383 301.302 433.979 306.052L417.895 322.745H448.313V333.889Z" fill="#2F6494"/>
<path fill-rule="evenodd" clip-rule="evenodd" d="M459.715 307.776H475.186V283.285L474.274 284.857L459.715 307.776ZM489.071 307.776H497V318.881H489.071V333.889H475.186V318.881H446.503L445.879 310.207L475.043 264.51H489.071V307.776Z" fill="#2F6494"/>
</svg>
