<svg width="512" height="512" viewBox="0 0 512 512" fill="none" xmlns="http://www.w3.org/2000/svg">
<g clip-path="url(#clip0_7_172)">
<rect width="512" height="512" fill="white"/>
<path d="M371.16 111.286C359.293 74.2583 335.946 40.0595 302.76 15.4016C293.253 8.33812 283.423 2.4069 273.408 -2.41329L307.827 -57.8498C317.697 -52.3887 327.282 -46.2654 336.702 -39.2661C385.184 -3.24242 418.594 47.2952 434.473 101.659L481.888 94.4491C488.217 93.4094 494.922 96.6443 498.782 102.633C502.641 108.621 502.936 116.079 499.489 121.632L440.09 217.3C435.423 224.817 425.382 226.344 417.777 220.693L320.984 148.774C315.367 144.6 312.389 137.395 313.444 130.814C314.499 124.233 319.282 119.174 325.697 118.199L371.16 111.286Z" fill="#007331"/>
<path d="M21.8911 208.47C33.7578 245.498 57.1051 279.697 90.2912 304.354C99.7976 311.418 109.628 317.349 119.643 322.169L85.2241 377.606C75.3542 372.145 65.7692 366.021 56.3492 359.022C7.8665 322.998 -25.5429 272.461 -41.4221 218.097L-88.8372 225.307C-95.1658 226.347 -101.871 223.112 -105.731 217.123C-109.59 211.135 -109.885 203.677 -106.438 198.124L-47.0391 102.456C-42.3721 94.9392 -32.3312 93.4124 -24.7261 99.0632L72.0665 170.982C77.684 175.156 80.6615 182.361 79.6066 188.942C78.5517 195.523 73.7688 200.582 67.3538 201.557L21.8911 208.47Z" fill="#007331"/>
<path d="M246.525 129.126C246.525 148.835 211.539 147.713 206.799 173.735C198.942 216.857 162.189 148.835 162.189 129.126C141.979 93.9347 136.228 97.7829 196.359 97.8967C198.038 97.8999 199.757 97.618 201.372 97.1578C229.651 89.1012 246.525 104.543 246.525 129.126Z" fill="url(#paint0_radial_7_172)"/>
<circle cx="83.7018" cy="196.039" r="10.4088" fill="url(#paint1_radial_7_172)"/>
<path d="M221.99 118.717C221.99 126.108 216.743 137.304 209.351 137.304C203.397 137.304 204.624 132.703 204.16 128.194C203.938 126.038 203.606 123.782 202.623 121.851C200.67 118.016 195.839 116.005 197.426 113.515C198.761 111.42 201.722 111.26 204.205 111.311C211.809 111.466 221.99 112.452 221.99 118.717Z" fill="#3F89BB"/>
<path d="M-178.748 103.104C-151.983 70.3904 -118.526 29.4987 -1.05536 29.4987C116.415 29.4988 172.177 72.6209 195.968 117.23C219.76 161.839 196.712 303.845 202.659 352.171C208.607 400.498 205.704 398.267 207.864 500.868C210.24 613.723 111.954 657 -1.05536 657C-114.065 657 -213.493 599.008 -205.514 500.868C-197.535 402.728 -187.521 386.371 -202.54 311.279C-217.558 236.188 -205.514 135.817 -178.748 103.104Z" fill="url(#paint2_radial_7_172)"/>
<path d="M-25.339 321.456C-25.8921 317.142 -22.8969 313.176 -18.5959 312.528L17.7639 307.049C22.9243 306.271 27.4355 310.563 26.9163 315.756L24.9433 335.486C24.5343 339.575 21.093 342.69 16.983 342.69H-15.5769C-19.6018 342.69 -23.0001 339.699 -23.5119 335.707L-25.339 321.456Z" fill="url(#paint3_radial_7_172)"/>
<path d="M-25.339 321.456C-25.8921 317.142 -22.8969 313.176 -18.5959 312.528L17.7639 307.049C22.9243 306.271 27.4355 310.563 26.9163 315.756L24.9433 335.486C24.5343 339.575 21.093 342.69 16.983 342.69H-15.5769C-19.6018 342.69 -23.0001 339.699 -23.5119 335.707L-25.339 321.456Z" fill="url(#paint4_radial_7_172)" fill-opacity="0.2" style="mix-blend-mode:multiply"/>
<path d="M158.794 203.474C164.66 248.446 134.883 279.309 100.802 279.309C55.4493 279.309 21.9925 244.366 21.9925 203.474C21.9925 166.108 43.5536 133.586 83.7017 133.586C117.783 133.586 152.102 152.174 158.794 203.474Z" fill="url(#paint5_radial_7_172)"/>
<circle cx="91.1366" cy="207.935" r="28.2524" fill="black"/>
<path d="M50.9883 294.18C50.9883 314.254 31.5636 315.519 -0.312099 317.971C-29.308 320.202 -51.6125 313.51 -51.6125 294.18C-51.6125 274.849 -28.6446 264.44 -0.312099 264.44C28.0204 264.44 50.9883 280.219 50.9883 294.18Z" fill="url(#paint6_radial_7_172)"/>
<path d="M25.7098 274.105C29.4273 289.719 18.275 291.949 1.17483 291.949C-12.3755 291.949 -26.3341 287.933 -26.3341 279.31C-26.3341 267.414 -18.8993 258.492 1.17483 258.492C14.7251 258.492 25.7098 265.483 25.7098 274.105Z" fill="black"/>
<path d="M259.34 349.337L248.455 300.557C246.92 293.674 241.646 288.133 235.274 286.395C228.902 284.656 222.316 287.127 218.869 292.679L159.471 388.348C154.804 395.865 157.208 406.638 164.813 412.289L261.606 484.208C267.223 488.382 274.304 488.775 279.646 485.255C284.989 481.735 287.438 474.942 285.85 468.145L274.498 417.27C324.81 405.597 369.82 375.006 399.572 327.086C405.353 317.776 410.283 308.207 414.555 298.275L358.467 256.601C354.82 266.747 350.096 276.594 344.262 285.99C323.897 318.79 293.509 340.274 259.34 349.337ZM-21.5041 21.4809L34.5838 63.1554C38.2314 53.0088 42.9555 43.1627 48.7892 33.7667C69.1544 0.966059 99.5425 -20.5178 133.711 -29.581L144.596 19.1989C146.132 26.082 151.405 31.6232 157.777 33.3617C164.149 35.1002 170.735 32.6291 174.182 27.0769L233.58 -68.5916C238.247 -76.1084 235.843 -86.8819 228.238 -92.5327L131.446 -164.452C125.828 -168.626 118.747 -169.019 113.405 -165.499C108.062 -161.979 105.613 -155.186 107.202 -148.389L118.553 -97.5139C68.241 -85.8412 23.2314 -55.2495 -6.52081 -7.32984C-12.3015 1.98075 -17.2319 11.5487 -21.5041 21.4809Z" fill="#D51000"/>
<path d="M239.908 411.512C243.626 410.768 243.626 421.177 251.804 421.177C254.715 421.177 260.846 415.614 263.7 407.051C268.863 391.557 262.956 369.877 242.882 370.62C222.808 371.364 215.431 389.207 220.578 400.359C225.725 411.512 235.447 421.177 239.165 418.947C242.882 416.716 236.191 412.255 239.908 411.512Z" fill="url(#paint7_radial_7_172)"/>
<path d="M205.61 282.889C192.227 268.763 169.179 276.941 164.718 279.915C160.257 282.889 157.284 297.015 161.744 308.167C166.205 319.32 186.279 358.724 200.406 372.851C215.778 388.223 221.223 399.616 233.862 393.668C246.502 387.72 254.184 374.337 238.323 356.494C222.462 338.65 218.993 297.015 205.61 282.889Z" fill="url(#paint8_radial_7_172)"/>
</g>
<defs>
<radialGradient id="paint0_radial_7_172" cx="0" cy="0" r="1" gradientUnits="userSpaceOnUse" gradientTransform="translate(230.912 110.538) rotate(152.103) scale(57.2049 60.6425)">
<stop offset="0.452311" stop-color="#8CC5E4"/>
<stop offset="1" stop-color="#3F89BB"/>
</radialGradient>
<radialGradient id="paint1_radial_7_172" cx="0" cy="0" r="1" gradientUnits="userSpaceOnUse" gradientTransform="translate(78.4974 191.578) rotate(50.1944) scale(17.4204)">
<stop offset="0.645833" stop-color="white"/>
<stop offset="1" stop-color="#D9D9D9" stop-opacity="0.9"/>
</radialGradient>
<radialGradient id="paint2_radial_7_172" cx="0" cy="0" r="1" gradientUnits="userSpaceOnUse" gradientTransform="translate(4.89254 109.052) rotate(100.577) scale(615.658 409.119)">
<stop offset="0.834649" stop-color="#8CC5E4"/>
<stop offset="1" stop-color="#3F89BB"/>
</radialGradient>
<radialGradient id="paint3_radial_7_172" cx="0" cy="0" r="1" gradientUnits="userSpaceOnUse" gradientTransform="translate(0.43135 304.589) rotate(89.441) scale(38.1029 73.5259)">
<stop offset="0.201483" stop-color="#999999"/>
<stop offset="0.617501" stop-color="white"/>
</radialGradient>
<radialGradient id="paint4_radial_7_172" cx="0" cy="0" r="1" gradientUnits="userSpaceOnUse" gradientTransform="translate(0.431347 321.689) scale(28.2524 49.4334)">
<stop offset="0.510384" stop-color="white"/>
<stop offset="1" stop-opacity="0.07"/>
</radialGradient>
<radialGradient id="paint5_radial_7_172" cx="0" cy="0" r="1" gradientUnits="userSpaceOnUse" gradientTransform="translate(64.3711 167.043) rotate(56.1215) scale(125.374 118.337)">
<stop offset="0.71875" stop-color="white"/>
<stop offset="1" stop-color="#E2E2E2"/>
</radialGradient>
<radialGradient id="paint6_radial_7_172" cx="0" cy="0" r="1" gradientUnits="userSpaceOnUse" gradientTransform="translate(0.43139 273.362) rotate(88.5679) scale(59.4974 106.869)">
<stop offset="0.411039" stop-color="#B58765"/>
<stop offset="1" stop-color="#8D6547"/>
</radialGradient>
<radialGradient id="paint7_radial_7_172" cx="0" cy="0" r="1" gradientUnits="userSpaceOnUse" gradientTransform="translate(247.269 420.574) rotate(-105.255) scale(50.8622 69.1059)">
<stop offset="0.6604" stop-color="#B58765"/>
<stop offset="1" stop-color="#74543C"/>
</radialGradient>
<radialGradient id="paint8_radial_7_172" cx="0" cy="0" r="1" gradientUnits="userSpaceOnUse" gradientTransform="translate(195.225 292.695) rotate(81.486) scale(125.546 67.3321)">
<stop offset="0.504622" stop-color="#8CC5E4"/>
<stop offset="1" stop-color="#3F89BB"/>
</radialGradient>
<clipPath id="clip0_7_172">
<rect width="512" height="512" fill="white"/>
</clipPath>
</defs>
</svg>
