<svg width="512" height="512" viewBox="0 0 512 512" fill="none" xmlns="http://www.w3.org/2000/svg">
<rect width="512" height="512" fill="white"/>
<path d="M412.698 180.114C405.484 157.605 391.291 136.815 371.117 121.825C365.338 117.531 359.362 113.926 353.273 110.995L374.197 77.2953C380.197 80.6151 386.024 84.3375 391.75 88.5924C421.223 110.491 441.533 141.214 451.186 174.261L480.01 169.879C483.857 169.247 487.933 171.213 490.28 174.853C492.626 178.494 492.805 183.028 490.709 186.403L454.601 244.56C451.763 249.13 445.66 250.058 441.036 246.623L382.196 202.903C378.781 200.366 376.971 195.986 377.612 191.985C378.253 187.985 381.161 184.909 385.06 184.316L412.698 180.114Z" fill="#007331"/>
<path d="M200.375 239.193C207.589 261.702 221.782 282.492 241.956 297.481C247.735 301.775 253.711 305.381 259.799 308.311L238.875 342.011C232.875 338.691 227.049 334.969 221.322 330.714C191.849 308.815 171.54 278.093 161.887 245.045L133.063 249.428C129.215 250.06 125.139 248.093 122.793 244.453C120.447 240.813 120.268 236.279 122.363 232.904L158.472 174.746C161.309 170.177 167.413 169.248 172.036 172.684L230.877 216.404C234.292 218.941 236.102 223.321 235.461 227.322C234.819 231.322 231.912 234.397 228.012 234.99L200.375 239.193Z" fill="#007331"/>
<path d="M317.607 178.801C317.607 190.782 296.338 190.1 293.456 205.919C288.681 232.133 266.338 190.782 266.338 178.801C254.164 157.603 250.62 159.707 286.122 159.814C287.802 159.819 289.495 159.525 291.121 159.106C307.731 154.825 317.607 164.138 317.607 178.801Z" fill="url(#paint0_radial_7_146)"/>
<circle cx="116.48" cy="220.382" r="6.32756" fill="url(#paint1_radial_7_146)"/>
<circle cx="218.625" cy="219.478" r="6.32756" fill="url(#paint2_radial_7_146)"/>
<path d="M302.692 172.473C302.692 176.966 299.501 183.772 295.008 183.772C291.958 183.772 292.008 181.786 291.93 179.52C291.856 177.354 291.569 174.993 290.21 173.305C289.372 172.264 288.314 171.46 287.831 170.696C286.502 168.598 290.879 167.903 293.36 168.02C297.72 168.224 302.692 169.06 302.692 172.473Z" fill="#3F89BB"/>
<path d="M235.852 496.273C242.969 497.486 254.335 497.981 259.816 498.313C260.648 498.363 261.542 498.221 262.07 497.575C263.574 495.732 261.081 493.745 261.919 493.016C262.884 492.177 270.003 494.034 270.769 489.557C271.535 485.08 250.303 477.705 243.865 479.067C237.663 480.38 228.754 490.332 234.277 495.542C234.706 495.947 235.269 496.174 235.852 496.273Z" fill="url(#paint3_radial_7_146)"/>
<path d="M107.759 497.329C100.605 498.293 89.2276 498.391 83.7389 498.531C82.9055 498.553 82.0166 498.379 81.5121 497.715C80.0726 495.821 82.6343 493.922 81.822 493.164C80.8871 492.292 73.7073 493.9 73.0979 489.399C72.4884 484.898 93.9647 478.268 100.351 479.854C106.504 481.382 115.06 491.639 109.359 496.653C108.915 497.044 108.345 497.251 107.759 497.329Z" fill="url(#paint4_radial_7_146)"/>
<path d="M76.2554 166.598C76.2554 177.581 44.6176 227.613 43.2617 208.631C45.9735 198.687 16.5955 192.812 17.4995 175.185C17.9624 166.158 25.183 154.846 43.2617 158.01C57.2727 161.626 80.3231 150.327 76.2554 166.598Z" fill="url(#paint5_radial_7_146)"/>
<path d="M45.9735 176.993C43.7137 179.027 47.1005 185.128 42.3578 185.128C37.6151 185.128 33.3184 177.121 33.3184 173.377C33.3184 170 38.6508 168.303 43.1763 168.002C44.1341 167.939 45.1106 167.995 46.0115 168.326C49.7173 169.688 50.0318 173.34 45.9735 176.993Z" fill="#3F89BB"/>
<path d="M59.0804 162.982C75.3513 143.095 95.6899 118.237 167.101 118.237C238.512 118.237 272.41 144.451 286.873 171.569C301.336 198.687 287.325 285.013 290.94 314.391C294.556 343.769 292.791 342.413 294.104 404.785C295.548 473.39 235.8 499.698 167.101 499.698C98.4017 499.698 37.9591 464.445 42.8095 404.785C47.6599 345.125 53.7472 335.182 44.6174 289.533C35.4877 243.884 42.8095 182.868 59.0804 162.982L59.0804 162.982Z" fill="url(#paint6_radial_7_146)"/>
<path d="M152.729 298.763C152.176 294.449 155.171 290.483 159.472 289.835L174.551 287.563C179.712 286.785 184.223 291.077 183.704 296.269L183.188 301.424C182.779 305.513 179.338 308.628 175.228 308.628H161.034C157.009 308.628 153.61 305.637 153.098 301.645L152.729 298.763Z" fill="url(#paint7_radial_7_146)"/>
<path d="M152.729 298.763C152.176 294.449 155.171 290.483 159.472 289.835L174.551 287.563C179.712 286.785 184.223 291.077 183.704 296.269L183.188 301.424C182.779 305.513 179.338 308.628 175.228 308.628H161.034C157.009 308.628 153.61 305.637 153.098 301.645L152.729 298.763Z" fill="url(#paint8_radial_7_146)" fill-opacity="0.2" style="mix-blend-mode:multiply"/>
<path d="M153.313 229.421C153.313 252.136 131.998 270.55 111.28 270.55C90.5619 270.55 70.1508 256.204 70.1508 233.489C70.1508 204.111 90.5619 181.965 111.28 181.965C131.998 181.965 153.313 193.264 153.313 229.421Z" fill="url(#paint9_radial_7_146)"/>
<path d="M264.274 223.998C267.84 251.336 249.739 270.098 229.02 270.098C201.45 270.098 181.112 248.856 181.112 223.998C181.112 201.283 194.219 181.513 218.625 181.513C239.343 181.513 260.206 192.812 264.274 223.998Z" fill="url(#paint10_radial_7_146)"/>
<circle cx="112.865" cy="226.709" r="17.1748" fill="black"/>
<circle cx="223.145" cy="226.709" r="17.1748" fill="black"/>
<path d="M198.739 279.138C198.739 291.341 186.93 292.111 167.553 293.601C149.926 294.957 136.367 290.889 136.367 279.138C136.367 267.387 150.329 261.059 167.553 261.059C184.776 261.059 198.739 270.651 198.739 279.138Z" fill="url(#paint11_radial_7_146)"/>
<path d="M183.372 266.935C185.631 276.426 178.852 277.782 168.457 277.782C160.219 277.782 151.734 275.341 151.734 270.099C151.734 262.867 156.254 257.444 168.457 257.444C176.694 257.444 183.372 261.693 183.372 266.935Z" fill="black"/>
<path d="M55.0129 269.195C46.8774 275.974 47.3293 291.793 31.9625 307.16C16.5956 322.527 21.5672 325.239 21.5672 335.182C21.5672 345.126 33.7703 347.385 45.5215 343.318C57.2727 339.25 82.131 313.488 81.679 294.053C81.227 274.618 63.1483 262.415 55.0129 269.195Z" fill="url(#paint12_radial_7_146)"/>
<path d="M19.3942 349.059C17.663 347.538 14.4994 353.018 10.1938 350.532C8.66114 349.647 7.12414 344.855 8.22475 339.479C10.2161 329.753 19.9154 320.134 30.2576 326.627C40.5999 333.12 39.0603 344.757 32.9608 349.063C26.8612 353.37 18.8049 355.503 17.5258 353.199C16.2467 350.895 21.1253 350.58 19.3942 349.059Z" fill="url(#paint13_radial_7_146)"/>
<path d="M344.721 324.827L338.105 295.173C337.171 290.989 333.965 287.62 330.092 286.563C326.218 285.506 322.215 287.009 320.119 290.384L284.01 348.541C281.173 353.111 282.635 359.66 287.258 363.095L346.099 406.815C349.514 409.353 353.818 409.591 357.066 407.452C360.314 405.312 361.803 401.183 360.837 397.05L353.936 366.123C384.521 359.027 411.883 340.431 429.969 311.3C433.483 305.64 436.481 299.824 439.078 293.786L404.982 268.452C402.764 274.62 399.892 280.605 396.346 286.317C383.966 306.257 365.493 319.317 344.721 324.827ZM173.995 125.521L208.091 150.855C210.308 144.687 213.18 138.701 216.727 132.989C229.107 113.05 247.58 99.9896 268.351 94.48L274.968 124.134C275.901 128.318 279.107 131.686 282.981 132.743C286.854 133.8 290.858 132.298 292.953 128.923L329.062 70.7653C331.899 66.1958 330.438 59.6465 325.815 56.2114L266.974 12.4914C263.559 9.95408 259.254 9.71512 256.007 11.8548C252.759 13.9945 251.27 18.1239 252.236 22.2562L259.137 53.1833C228.551 60.2791 201.19 78.876 183.103 108.007C179.589 113.667 176.592 119.483 173.995 125.521Z" fill="#D51000"/>
<path d="M313.584 350.464C315.844 350.012 315.844 356.34 320.816 356.34C322.585 356.34 326.312 352.958 328.047 347.752C331.186 338.334 327.595 325.154 315.392 325.606C303.189 326.058 298.704 336.905 301.833 343.685C304.962 350.464 310.872 356.34 313.132 354.984C315.392 353.628 311.324 350.916 313.584 350.464Z" fill="url(#paint14_radial_7_146)"/>
<path d="M292.734 272.273C284.599 263.686 270.588 268.658 267.876 270.466C265.164 272.273 263.356 280.861 266.068 287.64C268.78 294.42 280.983 318.374 289.57 326.962C298.915 336.307 302.225 343.233 309.909 339.617C317.592 336.001 322.263 327.866 312.621 317.018C302.979 306.171 300.869 280.861 292.734 272.273Z" fill="url(#paint15_radial_7_146)"/>
<path d="M69.04 426C68.6667 426 68.48 425.813 68.48 425.44L68.704 348.496C68.704 348.197 68.8533 348.048 69.152 348.048L90.096 347.936C94.2027 347.861 97.936 348.832 101.296 350.848C104.731 352.864 107.456 355.589 109.472 359.024C111.488 362.384 112.496 366.117 112.496 370.224L112.496 402.368C112.496 406.699 111.451 410.656 109.36 414.24C107.269 417.749 104.469 420.549 100.96 422.64C97.4507 424.731 93.4933 425.813 89.088 425.888L69.04 426ZM82.144 412.224H89.088C91.8507 412.224 94.1653 411.253 96.032 409.312C97.9733 407.371 98.944 405.056 98.944 402.368L98.944 370.112C98.944 367.723 98.048 365.669 96.256 363.952C94.5387 362.16 92.4853 361.301 90.096 361.376L82.256 361.488L82.144 412.224ZM121.868 426C121.495 426 121.308 425.813 121.308 425.44L121.532 348.496C121.532 348.197 121.681 348.048 121.98 348.048L142.924 347.936C147.031 347.861 150.764 348.832 154.124 350.848C157.559 352.864 160.284 355.589 162.3 359.024C164.316 362.384 165.324 366.117 165.324 370.224V402.368C165.324 406.699 164.279 410.656 162.188 414.24C160.097 417.749 157.297 420.549 153.788 422.64C150.279 424.731 146.321 425.813 141.916 425.888L121.868 426ZM134.972 412.224H141.916C144.679 412.224 146.993 411.253 148.86 409.312C150.801 407.371 151.772 405.056 151.772 402.368V370.112C151.772 367.723 150.876 365.669 149.084 363.952C147.367 362.16 145.313 361.301 142.924 361.376L135.084 361.488L134.972 412.224ZM175.144 426C174.547 426 174.248 425.739 174.248 425.216L174.136 348.944C174.136 348.347 174.435 348.048 175.032 348.048H185.112L204.04 392.176L203.48 348.944C203.48 348.347 203.816 348.048 204.488 348.048H215.576C216.024 348.048 216.248 348.347 216.248 348.944L216.36 425.328C216.36 425.776 216.174 426 215.8 426H205.944L186.568 384.784L187.352 425.104C187.352 425.701 187.016 426 186.344 426H175.144ZM245.129 427.12C241.097 427.12 237.401 426.112 234.041 424.096C230.756 422.005 228.105 419.28 226.089 415.92C224.148 412.485 223.177 408.715 223.177 404.608V399.456C223.177 399.083 223.364 398.896 223.737 398.896H236.281C236.58 398.896 236.729 399.083 236.729 399.456V404.608C236.729 407.072 237.551 409.2 239.193 410.992C240.836 412.709 242.815 413.568 245.129 413.568C247.444 413.568 249.423 412.672 251.065 410.88C252.708 409.088 253.529 406.997 253.529 404.608C253.529 401.845 251.737 399.456 248.153 397.44C246.959 396.768 245.092 395.723 242.553 394.304C240.015 392.885 237.625 391.541 235.385 390.272C231.279 387.883 228.217 384.896 226.201 381.312C224.26 377.653 223.289 373.547 223.289 368.992C223.289 364.811 224.297 361.077 226.313 357.792C228.329 354.432 230.98 351.781 234.265 349.84C237.625 347.899 241.247 346.928 245.129 346.928C249.087 346.928 252.708 347.936 255.993 349.952C259.353 351.893 262.004 354.544 263.945 357.904C265.961 361.189 266.969 364.885 266.969 368.992V378.176C266.969 378.475 266.82 378.624 266.521 378.624L253.977 378.624C253.679 378.624 253.529 378.475 253.529 378.176L253.417 368.992C253.417 366.379 252.596 364.251 250.953 362.608C249.311 360.965 247.369 360.144 245.129 360.144C242.815 360.144 240.836 361.04 239.193 362.832C237.551 364.549 236.729 366.603 236.729 368.992C236.729 371.456 237.252 373.509 238.297 375.152C239.343 376.795 241.247 378.363 244.009 379.856C244.383 380.08 245.092 380.491 246.137 381.088C247.257 381.611 248.452 382.245 249.721 382.992C250.991 383.664 252.111 384.261 253.081 384.784C254.127 385.307 254.761 385.643 254.985 385.792C258.719 387.883 261.668 390.459 263.833 393.52C265.999 396.507 267.081 400.203 267.081 404.608C267.081 408.864 266.073 412.709 264.057 416.144C262.116 419.504 259.465 422.192 256.105 424.208C252.82 426.149 249.161 427.12 245.129 427.12Z" fill="black"/>
<defs>
<radialGradient id="paint0_radial_7_146" cx="0" cy="0" r="1" gradientUnits="userSpaceOnUse" gradientTransform="translate(308.115 167.502) rotate(152.103) scale(34.7752 36.8649)">
<stop offset="0.452311" stop-color="#8CC5E4"/>
<stop offset="1" stop-color="#3F89BB"/>
</radialGradient>
<radialGradient id="paint1_radial_7_146" cx="0" cy="0" r="1" gradientUnits="userSpaceOnUse" gradientTransform="translate(118.74 215.41) rotate(115.56) scale(11.523)">
<stop offset="0.645833" stop-color="white"/>
<stop offset="1" stop-color="#D9D9D9" stop-opacity="0.9"/>
</radialGradient>
<radialGradient id="paint2_radial_7_146" cx="0" cy="0" r="1" gradientUnits="userSpaceOnUse" gradientTransform="translate(215.461 216.766) rotate(50.1944) scale(10.59)">
<stop offset="0.645833" stop-color="white"/>
<stop offset="1" stop-color="#D9D9D9" stop-opacity="0.9"/>
</radialGradient>
<radialGradient id="paint3_radial_7_146" cx="0" cy="0" r="1" gradientUnits="userSpaceOnUse" gradientTransform="translate(264.479 494.671) rotate(-152.425) scale(27.1219 55.6487)">
<stop stop-color="#B58765"/>
<stop offset="1" stop-color="#9B7254"/>
<stop offset="1" stop-color="#74543C"/>
</radialGradient>
<radialGradient id="paint4_radial_7_146" cx="0" cy="0" r="1" gradientUnits="userSpaceOnUse" gradientTransform="translate(79.2051 494.729) rotate(-25.5747) scale(27.1219 55.6487)">
<stop stop-color="#B58765"/>
<stop offset="1" stop-color="#9B7254"/>
<stop offset="1" stop-color="#74543C"/>
</radialGradient>
<radialGradient id="paint5_radial_7_146" cx="0" cy="0" r="1" gradientUnits="userSpaceOnUse" gradientTransform="translate(25.1829 170.213) rotate(21.4854) scale(45.6578 48.8145)">
<stop offset="0.495889" stop-color="#8CC5E4"/>
<stop offset="1" stop-color="#3F89BB"/>
</radialGradient>
<radialGradient id="paint6_radial_7_146" cx="0" cy="0" r="1" gradientUnits="userSpaceOnUse" gradientTransform="translate(170.717 166.598) rotate(100.577) scale(374.262 248.706)">
<stop offset="0.834649" stop-color="#8CC5E4"/>
<stop offset="1" stop-color="#3F89BB"/>
</radialGradient>
<radialGradient id="paint7_radial_7_146" cx="0" cy="0" r="1" gradientUnits="userSpaceOnUse" gradientTransform="translate(168.005 285.466) rotate(89.441) scale(23.1629 44.6968)">
<stop offset="0.201483" stop-color="#999999"/>
<stop offset="0.617501" stop-color="white"/>
</radialGradient>
<radialGradient id="paint8_radial_7_146" cx="0" cy="0" r="1" gradientUnits="userSpaceOnUse" gradientTransform="translate(168.005 295.861) scale(17.1748 30.0508)">
<stop offset="0.510384" stop-color="white"/>
<stop offset="1" stop-opacity="0.07"/>
</radialGradient>
<radialGradient id="paint9_radial_7_146" cx="0" cy="0" r="1" gradientUnits="userSpaceOnUse" gradientTransform="translate(126.876 208.179) rotate(120.639) scale(68.2892 64.1082)">
<stop offset="0.71875" stop-color="white"/>
<stop offset="1" stop-color="#E2E2E2"/>
</radialGradient>
<radialGradient id="paint10_radial_7_146" cx="0" cy="0" r="1" gradientUnits="userSpaceOnUse" gradientTransform="translate(206.874 201.851) rotate(56.1215) scale(76.2154 71.9375)">
<stop offset="0.71875" stop-color="white"/>
<stop offset="1" stop-color="#E2E2E2"/>
</radialGradient>
<radialGradient id="paint11_radial_7_146" cx="0" cy="0" r="1" gradientUnits="userSpaceOnUse" gradientTransform="translate(168.005 266.483) rotate(88.5679) scale(36.1688 64.9661)">
<stop offset="0.411039" stop-color="#B58765"/>
<stop offset="1" stop-color="#8D6547"/>
</radialGradient>
<radialGradient id="paint12_radial_7_146" cx="0" cy="0" r="1" gradientUnits="userSpaceOnUse" gradientTransform="translate(36.4822 286.822) rotate(64.3348) scale(77.2219 73.0075)">
<stop offset="0.471239" stop-color="#8CC5E4"/>
<stop offset="1" stop-color="#3F89BB"/>
</radialGradient>
<radialGradient id="paint13_radial_7_146" cx="0" cy="0" r="1" gradientUnits="userSpaceOnUse" gradientTransform="translate(15.839 354.313) rotate(-60) scale(23.5024 14.7875)">
<stop stop-color="#74543C"/>
<stop offset="0.795054" stop-color="#B58765"/>
</radialGradient>
<radialGradient id="paint14_radial_7_146" cx="0" cy="0" r="1" gradientUnits="userSpaceOnUse" gradientTransform="translate(318.059 355.973) rotate(-105.255) scale(30.9194 42.0099)">
<stop offset="0.6604" stop-color="#B58765"/>
<stop offset="1" stop-color="#74543C"/>
</radialGradient>
<radialGradient id="paint15_radial_7_146" cx="0" cy="0" r="1" gradientUnits="userSpaceOnUse" gradientTransform="translate(286.421 278.235) rotate(81.486) scale(76.3198 40.9315)">
<stop offset="0.504622" stop-color="#8CC5E4"/>
<stop offset="1" stop-color="#3F89BB"/>
</radialGradient>
</defs>
</svg>
