<svg width="512" height="512" viewBox="0 0 512 512" fill="none" xmlns="http://www.w3.org/2000/svg">
<rect width="512" height="512" fill="white"/>
<path d="M15 193.988C50.6642 60.8871 187.475 -18.1007 320.576 17.5635C406.677 40.6342 473.929 107.887 497 193.988C497 193.988 472.501 169.574 456.833 169.574C441.165 169.574 416.667 193.988 416.667 193.988C416.667 193.988 392.168 169.574 376.5 169.574C360.832 169.574 336.333 193.988 336.333 193.988C336.333 193.988 311.835 169.574 296.167 169.574C280.499 169.574 256 193.988 256 193.988C256 193.988 231.501 169.574 215.833 169.574C200.165 169.574 175.667 193.988 175.667 193.988C175.667 193.988 151.168 169.574 135.5 169.574C119.832 169.574 95.3334 193.988 95.3334 193.988C95.3334 193.988 70.8349 169.574 55.1668 169.574C39.4987 169.574 15 193.988 15 193.988Z" fill="black" stroke="white" stroke-width="0.229552"/>
<path d="M249.135 188.653V437.177C249.135 474.722 271.15 502.139 298.294 502.139C325.439 502.139 347.443 474.681 347.443 437.135C347.443 437.135 343.113 433.011 340.378 432.959C337.797 432.91 333.566 436.645 333.566 436.645C333.566 463.589 317.774 488.925 298.294 488.925C278.814 488.925 263.022 463.589 263.022 436.645L263.019 188.653H249.135Z" fill="black" stroke="white" stroke-width="0.229552"/>
</svg>
