<svg width="512" height="512" viewBox="0 0 512 512" fill="none" xmlns="http://www.w3.org/2000/svg">
<rect width="512" height="512" fill="white"/>
<path d="M490.85 375.405C451.79 397.199 406.442 409.297 358.235 408.31C216.13 405.451 103.222 290.28 106.007 151.136C107.004 103.88 121.132 60.0223 145.021 22.7124C68.9393 65.1913 16.942 144.626 15.0514 236.578C12.2387 375.741 125.239 490.902 267.382 493.771C361.234 495.68 444.432 448.097 490.85 375.405Z" fill="#1F3244"/>
<path d="M355.742 378.386C357.316 378.414 358.899 378.442 360.483 378.442C397.569 378.442 434.152 369.259 466.675 351.973C485.842 319.115 497 280.976 497 240.136C497 117.478 397.83 18 275.469 18C236.892 18 200.635 27.9282 169.062 45.3165C148.666 78.1373 137.424 115.876 136.605 154.638C134.183 275.5 232.478 375.899 355.742 378.386Z" fill="#3E95BE"/>
</svg>
