<svg width="512" height="512" viewBox="0 0 512 512" fill="none" xmlns="http://www.w3.org/2000/svg">
<rect width="512" height="512" fill="white"/>
<path d="M44.7776 212.184H93.3856V221.256H55.3056V243.992H93.3856V253.064H55.3056V287H44.7776V212.184ZM105.465 231.448H112.297L115.321 241.752C119.241 235.032 125.849 230.552 135.145 230.552V240.296C119.913 240.296 114.873 248.36 114.873 263.144V287H105.465V231.448ZM167.16 288.344C149.688 288.344 139.944 275.688 139.944 259.336C139.944 241.752 151.704 230.552 166.936 230.552C184.632 230.552 193.928 245.896 192.808 261.8H150.024C150.471 275.8 160.328 280.056 167.16 280.056C173.432 280.056 177.576 277.928 180.152 274.568L189.224 277.256C185.192 283.752 177.576 288.344 167.16 288.344ZM166.936 238.616C158.536 238.616 151.032 243.096 150.136 254.296H182.84C182.728 246.456 176.792 238.616 166.936 238.616ZM227.535 288.344C210.062 288.344 200.319 275.688 200.319 259.336C200.319 241.752 212.079 230.552 227.311 230.552C245.007 230.552 254.303 245.896 253.183 261.8H210.399C210.846 275.8 220.703 280.056 227.535 280.056C233.807 280.056 237.951 277.928 240.527 274.568L249.599 277.256C245.567 283.752 237.951 288.344 227.535 288.344ZM227.311 238.616C218.911 238.616 211.407 243.096 210.511 254.296H243.215C243.103 246.456 237.167 238.616 227.311 238.616ZM264.95 287V212.184H285.334C309.078 212.184 326.214 221.032 326.214 249.48C326.214 278.152 309.078 287 285.334 287H264.95ZM275.478 221.032V278.152H285.11C300.566 278.152 315.462 275.016 315.462 249.48C315.462 224.168 300.566 221.032 285.11 221.032H275.478ZM340.309 212.184H355.877L389.925 275.8V212.184H400.453V287H384.997L350.837 223.048V287H340.309V212.184ZM413.496 270.648L423.24 267.736C425.816 275.8 434.44 279.496 442.616 279.496C451.576 279.496 460.2 275.128 460.2 266.168C460.2 259.448 455.272 256.088 441.048 253.176C429.512 250.712 414.168 247.352 414.168 230.888C414.168 218.232 427.832 210.84 441.608 210.84C452.136 210.84 462.888 215.208 467.592 224.84L457.96 227.64C455.048 222.376 447.992 219.688 441.16 219.688C432.984 219.688 425.032 223.496 425.032 231.336C425.032 239.736 434.104 241.64 444.296 243.768C457.288 246.568 471.288 250.376 471.288 266.616C471.288 280.504 456.84 288.344 442.168 288.344C429.848 288.344 417.416 282.744 413.496 270.648Z" fill="black"/>
</svg>
