<svg width="512" height="512" viewBox="0 0 512 512" fill="none" xmlns="http://www.w3.org/2000/svg">
<rect width="512" height="512" fill="white"/>
<path d="M403.791 166.604C406.214 163.266 407.944 159.477 408.88 155.46C409.817 151.443 409.94 147.279 409.244 143.214C408.547 139.149 407.044 135.264 404.824 131.788C402.603 128.312 399.71 125.315 396.315 122.974C389.485 118.369 381.144 116.574 373.025 117.96C364.906 119.346 357.633 123.807 352.718 130.416C337.799 150.627 321.992 164.556 303.761 172.989C288.161 179.39 271.553 182.985 254.702 183.606C238.564 183.099 222.673 179.495 207.896 172.989C188.846 164.454 172.766 150.627 159.11 130.416C156.749 127.016 153.739 124.116 150.252 121.886C146.765 119.655 142.871 118.136 138.794 117.418C134.717 116.7 130.539 116.796 126.499 117.701C122.46 118.606 118.64 120.302 115.259 122.691C111.879 125.08 109.005 128.115 106.803 131.62C104.601 135.125 103.115 139.032 102.431 143.115C101.747 147.197 101.878 151.375 102.817 155.406C103.755 159.438 105.483 163.244 107.9 166.604C138.626 211.294 193.045 233.621 199.429 235.738C174.951 253.832 148.219 278.31 136.646 311.29C123.875 345.612 123.875 383.382 136.646 417.704C148.988 449.978 172.869 476.523 203.663 492.197C237.803 509.267 280.273 509.267 318.578 492.197C359.034 474.103 384.57 440.988 388.804 403.877C393.071 364.514 373.919 329.384 341.008 314.499C306.868 299.58 268.631 310.231 242.002 342.152C239.464 345.365 237.586 349.047 236.475 352.987C235.365 356.927 235.043 361.048 235.53 365.113C236.016 369.178 237.301 373.107 239.31 376.674C241.32 380.24 244.014 383.375 247.238 385.898C250.462 388.421 254.153 390.282 258.098 391.374C262.044 392.466 266.166 392.768 270.229 392.263C274.291 391.757 278.214 390.454 281.771 388.428C285.329 386.402 288.451 383.693 290.959 380.457C298.401 370.898 306.902 367.689 315.437 370.898C321.821 374.073 328.205 382.574 327.147 397.493C326.089 412.412 313.286 426.205 293.007 435.798C271.738 445.357 248.318 445.357 232.374 436.857C215.328 428.002 202.088 413.245 195.128 395.342C187.518 375.483 187.518 353.511 195.128 333.651C202.57 313.441 220.664 295.346 253.644 275.135C267.3 266.6 282.389 258.065 296.216 250.657C295.26 251.715 371.87 210.269 403.791 166.604ZM253.746 7C239.438 7 225.451 11.2428 213.555 19.1919C201.658 27.141 192.386 38.4394 186.91 51.6583C181.435 64.8772 180.002 79.4229 182.793 93.456C185.585 107.489 192.475 120.379 202.592 130.497C212.709 140.614 225.6 147.504 239.633 150.295C253.666 153.087 268.211 151.654 281.43 146.179C294.649 140.703 305.948 131.431 313.897 119.534C321.846 107.637 326.089 93.6507 326.089 79.3426C326.071 60.1617 318.443 41.7716 304.88 28.2086C291.317 14.6457 272.927 7.01808 253.746 7ZM253.746 100.612C249.547 100.578 245.451 99.3021 241.976 96.9447C238.501 94.5872 235.802 91.2537 234.218 87.3644C232.634 83.4751 232.237 79.2041 233.077 75.0896C233.917 70.9751 235.956 67.2012 238.937 64.2437C241.919 61.2862 245.709 59.2774 249.83 58.4705C253.951 57.6635 258.218 58.0946 262.095 59.7093C265.972 61.324 269.283 64.0501 271.613 67.544C273.943 71.0379 275.186 75.1433 275.186 79.3426C275.181 82.1489 274.623 84.9266 273.541 87.5162C272.46 90.1059 270.878 92.4564 268.886 94.4328C266.894 96.4091 264.531 97.9724 261.932 99.0328C259.334 100.093 256.552 100.63 253.746 100.612Z" fill="black"/>
</svg>
