<svg width="512" height="512" viewBox="0 0 512 512" fill="none" xmlns="http://www.w3.org/2000/svg">
<rect width="512" height="512" fill="white"/>
<path d="M320.851 168.817H335.552L377.45 126.919L379.508 109.131C355.506 87.9457 326.5 73.2292 295.229 66.3715C263.958 59.5137 231.455 60.741 200.791 69.9375C170.126 79.1339 142.312 95.9959 119.976 118.931C97.6398 141.865 81.5193 170.116 73.137 201.013C77.8046 199.1 82.9752 198.789 87.8381 200.131L171.634 186.312C171.634 186.312 175.898 179.255 178.103 179.696C196.058 159.977 220.871 147.867 247.463 145.844C274.055 143.822 300.414 152.04 321.145 168.817H320.851Z" fill="#EA4335"/>
<path d="M437.136 201.013C427.505 165.548 407.732 133.666 380.242 109.278L321.438 168.082C333.693 178.096 343.515 190.762 350.162 205.125C356.808 219.488 360.107 235.173 359.808 250.997V261.435C366.681 261.435 373.486 262.788 379.836 265.418C386.186 268.049 391.955 271.904 396.815 276.763C401.675 281.623 405.53 287.393 408.16 293.742C410.79 300.092 412.144 306.898 412.144 313.771C412.144 320.643 410.79 327.449 408.16 333.799C405.53 340.148 401.675 345.918 396.815 350.778C391.955 355.638 386.186 359.493 379.836 362.123C373.486 364.753 366.681 366.107 359.808 366.107H255.136L244.698 376.691V439.465L255.136 449.903H359.808C389.037 450.131 417.563 440.944 441.167 423.702C464.77 406.46 482.197 382.079 490.87 354.165C499.543 326.251 499 296.287 489.323 268.705C479.646 241.124 461.348 217.389 437.136 201.013Z" fill="#4285F4"/>
<path d="M150.316 449.315H254.989V365.518H150.316C142.859 365.517 135.489 363.912 128.706 360.814L114.005 365.371L71.8125 407.27L68.1372 421.971C91.7977 439.837 120.668 449.443 150.316 449.315Z" fill="#34A853"/>
<path d="M150.319 177.492C121.958 177.662 94.3581 186.685 71.3741 203.302C48.3901 219.918 31.1699 243.299 22.1186 270.177C13.0673 297.056 12.637 326.09 20.8878 353.225C29.1386 380.36 45.6584 404.24 68.1399 421.531L128.856 360.815C121.14 357.329 114.385 352.024 109.171 345.353C103.956 338.683 100.438 330.847 98.9182 322.518C97.398 314.189 97.9213 305.615 100.443 297.533C102.965 289.451 107.41 282.101 113.397 276.114C119.383 270.127 126.733 265.682 134.816 263.16C142.898 260.639 151.471 260.115 159.8 261.636C168.129 263.156 175.965 266.674 182.636 271.888C189.306 277.103 194.612 283.857 198.098 291.573L258.814 230.857C246.07 214.197 229.645 200.711 210.824 191.454C192.002 182.196 171.294 177.418 150.319 177.492Z" fill="#FBBC05"/>
</svg>
